<?xml version="1.0" encoding="utf-8"?>
<!-- Generator: Adobe Illustrator 16.2.0, SVG Export Plug-In . SVG Version: 6.00 Build 0)  -->
<!DOCTYPE svg PUBLIC "-//W3C//DTD SVG 1.1//EN" "http://www.w3.org/Graphics/SVG/1.1/DTD/svg11.dtd">
<svg version="1.1" id="Capa_1" xmlns="http://www.w3.org/2000/svg" xmlns:xlink="http://www.w3.org/1999/xlink" x="0px" y="0px"
	viewBox="0 0 85 85" enable-background="new 0 0 85 85" xml:space="preserve">
<g>
	<g>
		<path fill="#b9b7b7" d="M65.875,48.875c5.313-3.896,8.5-10.271,8.5-17c0-11.688-9.563-21.25-21.25-21.25c-4.495,0-8.674,1.417-12.117,3.824
			c3.036,0.478,4.323,3.403,3.857,5.958c2.33-1.688,5.179-2.699,8.26-2.699c7.791,0,14.166,6.375,14.166,14.167
			c0,7.791-6.375,14.166-14.166,14.166c-2.828,0-5.459-0.854-7.674-2.301c-0.066,1.603-0.794,3.168-2.188,4.045
			c0.62,0.457,1.104,1.05,1.425,1.73c2.579,0.136,4.055,1.92,4.426,3.948c1.309-0.22,2.647-0.339,4.011-0.339
			c12.396,0,23.021,9.208,24.791,21.25H85C83.584,63.041,76.146,53.479,65.875,48.875z"/>
	</g>
</g>
<rect fill="#b9b7b7" x="67" y="73.75" width="18" height="6.25"/>
<g>
	<line  display="none" stroke="#FFFFFF" stroke-width="5" stroke-miterlimit="10" x1="1.875" y1="76.875" x2="65.625" y2="76.875"/>
	<g>
		<path fill="#b9b7b7" d="M-0.625,82.5v-8.28l0.02-0.154c1.335-10.685,7.807-20.247,17.201-25.732C12.414,43.996,10,38.08,10,31.875
			c0-13.096,10.654-23.75,23.75-23.75S57.5,18.779,57.5,31.875c0,6.205-2.414,12.12-6.596,16.458
			c9.395,5.486,15.866,15.049,17.201,25.732l0.02,0.154v8.28H-0.625z M55.448,71.875c-2.717-9.44-11.575-16.25-21.698-16.25
			c-10.124,0-18.982,6.81-21.699,16.25H55.448z M33.75,20.208c-6.433,0-11.667,5.233-11.667,11.667
			c0,6.433,5.233,11.666,11.667,11.666c6.433,0,11.666-5.233,11.666-11.666C45.416,25.442,40.183,20.208,33.75,20.208z"/>
		<path fill="#FFFFFF" d="M33.75,10.625c11.688,0,21.25,9.563,21.25,21.25c0,6.729-3.188,13.104-8.5,17
			c10.271,4.604,17.709,14.166,19.125,25.5V80H1.875v-5.625C3.292,63.041,10.729,53.479,21,48.875c-5.313-3.896-8.5-10.271-8.5-17
			C12.5,20.188,22.063,10.625,33.75,10.625 M33.75,46.041c7.791,0,14.166-6.375,14.166-14.166c0-7.792-6.375-14.167-14.166-14.167
			c-7.792,0-14.167,6.375-14.167,14.167C19.583,39.666,25.958,46.041,33.75,46.041 M8.958,74.375h49.583
			c-1.771-12.042-12.396-21.25-24.791-21.25C21.354,53.125,10.729,62.333,8.958,74.375 M33.75,5.625
			c-14.474,0-26.25,11.776-26.25,26.25c0,5.815,1.922,11.404,5.331,15.896C4.134,53.808-1.777,63.276-3.086,73.755l-0.039,0.309
			v0.312V80v5h5h63.75h5v-5v-5.625v-0.312l-0.038-0.309c-1.31-10.478-7.221-19.947-15.918-25.983C58.077,43.279,60,37.69,60,31.875
			C60,17.401,48.225,5.625,33.75,5.625L33.75,5.625z M33.75,41.041c-5.054,0-9.167-4.112-9.167-9.166s4.112-9.167,9.167-9.167
			s9.166,4.112,9.166,9.167S38.804,41.041,33.75,41.041L33.75,41.041z M15.684,69.375c3.28-6.69,10.249-11.25,18.066-11.25
			c7.816,0,14.785,4.56,18.065,11.25H15.684L15.684,69.375z"/>
	</g>
</g>
</svg>
