<?xml version="1.0" encoding="utf-8"?>
<!-- Generator: Adobe Illustrator 16.2.0, SVG Export Plug-In . SVG Version: 6.00 Build 0)  -->
<!DOCTYPE svg PUBLIC "-//W3C//DTD SVG 1.1//EN" "http://www.w3.org/Graphics/SVG/1.1/DTD/svg11.dtd">
<svg version="1.1" id="Слой_1" xmlns="http://www.w3.org/2000/svg" xmlns:xlink="http://www.w3.org/1999/xlink" x="0px" y="0px"
	viewBox="0 0 85 85" enable-background="new 0 0 85 85" xml:space="preserve">
<image display="none" overflow="visible" enable-background="new    " width="85" height="85" xlink:href="setting.png"  transform="matrix(0.9999 0 0 0.9999 0.0044 0.0049)">
</image>
<g>
	<path fill="#b9b7b7" d="M42.5,18c13.254,0,24,10.969,24,24.5c0,13.531-10.746,24.5-24,24.5c-13.254,0-24-10.969-24-24.5
		C18.5,28.969,29.246,18,42.5,18 M42.5,11c-17.093,0-31,14.131-31,31.5S25.407,74,42.5,74c17.094,0,31-14.131,31-31.5
		S59.594,11,42.5,11L42.5,11z"/>
</g>
<circle fill="none" stroke="#b9b7b7" stroke-width="7" stroke-miterlimit="10" cx="42.5" cy="42.5" r="13.5"/>
<rect fill="#b9b7b7" x="72.584" y="38.959" width="12.999" height="7"/>
<rect fill="#b9b7b7" x="-0.581" y="38.959" width="13" height="7"/>
<rect fill="#b9b7b7" x="39" y="-0.625" width="7" height="13"/>
<rect fill="#b9b7b7" x="38.959" y="72.917" width="7" height="13"/>
<rect fill="#b9b7b7" x="13.468" y="10.34" transform="matrix(0.7071 -0.7071 0.7071 0.7071 -6.3345 16.7071)" width="7.065" height="11.32"/>
<rect fill="#b9b7b7" x="64.467" y="63.041" transform="matrix(0.7071 -0.7071 0.7071 0.7071 -28.6616 68.2051)" width="7.066" height="11.319"/>
<rect fill="#b9b7b7" x="64.468" y="10.72" transform="matrix(-0.7071 -0.7071 0.7071 -0.7071 104.4988 76.0476)" width="7.065" height="11.32"/>
<rect fill="#b9b7b7" x="12.467" y="62.14" transform="matrix(-0.7071 -0.7071 0.7071 -0.7071 -20.6309 127.0534)" width="7.065" height="11.32"/>
</svg>
