<?xml version='1.0' encoding='utf-8'?>
<!DOCTYPE svg PUBLIC '-//W3C//DTD SVG 1.1//EN' 'http://www.w3.org/Graphics/SVG/1.1/DTD/svg11.dtd'>
<svg version="1.1" xmlns="http://www.w3.org/2000/svg" viewBox="0 0 512 512" xmlns:xlink="http://www.w3.org/1999/xlink" enable-background="new 0 0 512 512">
  <g>
    <g>
      <path fill="#b9b7b7" d="m384.9,498.4l-128.9-71.3-128.9,71.3c-6.8,3.8-15.2,3.3-21.6-1.1-6.4-4.5-9.7-12.2-8.4-19.9l24.9-152.5-105.2-107.8c-5.3-5.5-7.1-13.4-4.7-20.6 2.4-7.2 8.7-12.5 16.3-13.6l144.4-22.1 64.8-138.1c3.3-7.1 10.5-11.7 18.4-11.7 7.9,0 15.1,4.6 18.5,11.7l64.8,138.1 144.4,22.1c7.6,1.2 13.8,6.4 16.3,13.6 2.4,7.2 0.6,15.2-4.7,20.6l-105.2,107.8 24.9,152.5c1.3,7.7-2,15.4-8.4,19.9-3.6,2.4-11.6,6.3-21.7,1.1zm-311.3-281.3l84.7,86.8c4.5,4.6 6.5,11.1 5.5,17.4l-19.8,121.2 102-56.4c6.2-3.4 13.6-3.4 19.8,0l102,56.4-19.8-121.2c-1-6.4 1-12.8 5.5-17.4l84.7-86.8-116.1-17.7c-6.7-1-12.5-5.3-15.4-11.5l-50.7-108.6-50.9,108.5c-2.9,6.1-8.7,10.5-15.4,11.5l-116.1,17.8z"/>
    </g>
  </g>
</svg>
